M48
;Layer_Color=6321
;FILE_FORMAT=2:5
INCH,LZ
;TYPE=PLATED
T1F00S00C0.02756
T2F00S00C0.02953
T3F00S00C0.03000
T4F00S00C0.03150
T5F00S00C0.03543
T6F00S00C0.03900
T7F00S00C0.03937
T8F00S00C0.04134
T9F00S00C0.05906
%
T01
X0089567Y0133858
X009941
X0168307
X017815
X0219488
X0229331
X0278543
X0288386
T02
X0074488Y0149606
X0114488
X0153228
X0193228
X0212283
X0252283
X0263465Y0149606
X0303465
T03
X0314961Y0261811
Y028937
X0125984Y0192039
Y0178039
X0096457Y0188976
X0068898
T04
X0161339Y0224961
X0171339
X0181339
X0191339
X0201339
X0211339
X0221339
X0231339
X0241339
X0251339
X0261339
X0271339
X0281339
X0291339
X0151339
X0141339
X0131339
X0121339
X0111339
X0101339
Y0314961
X0111339
X0121339
X0131339
X0141339
X0151339
X0161339
X0171339
X0181339
X0191339
X0201339
X0211339
X0221339
X0231339
X0241339
X0251339
X0261339
X0271339
X0281339
X0291339
X0286969Y0346457
X0276969
X0266969
X0256969
X0246969
X0236969
X0226969
X0216969
T05
X0162913Y0173976
X0172913
X0182913
X0192913
X0202913
X0212913
X0222913
Y0203976
X0212913
X0202913
X0192913
X0182913
X0172913
X0162913
T06
X0082677Y0248032
Y0258032
Y0268032
Y0278032
Y0288032
Y0298032
T07
X007126Y0320866
T08
X0080984Y0338583
X0090984
X0100984
X0110984
X0120984
X0130984
X0140984
X0150984
X0160984
X0170984
T09
X0306693Y0200787
M30
