G04 Layer_Color=20142*
%FSLAX25Y25*%
%MOIN*%
G70*
G01*
G75*
%ADD37R,0.12611X0.12611*%
G04:AMPARAMS|DCode=38|XSize=204.85mil|YSize=204.85mil|CornerRadius=53.21mil|HoleSize=0mil|Usage=FLASHONLY|Rotation=0.000|XOffset=0mil|YOffset=0mil|HoleType=Round|Shape=RoundedRectangle|*
%AMROUNDEDRECTD38*
21,1,0.20485,0.09843,0,0,0.0*
21,1,0.09843,0.20485,0,0,0.0*
1,1,0.10642,0.04921,-0.04921*
1,1,0.10642,-0.04921,-0.04921*
1,1,0.10642,-0.04921,0.04921*
1,1,0.10642,0.04921,0.04921*
%
%ADD38ROUNDEDRECTD38*%
%ADD39C,0.05918*%
%ADD40R,0.05918X0.05918*%
%ADD41C,0.07800*%
%ADD42R,0.07800X0.07800*%
%ADD43C,0.07493*%
%ADD44R,0.07887X0.07887*%
%ADD45C,0.07887*%
%ADD46C,0.06902*%
%ADD47R,0.06902X0.06902*%
%ADD48C,0.06800*%
%ADD49R,0.06800X0.06800*%
%ADD50R,0.05524X0.10642*%
%ADD51O,0.05524X0.10642*%
%ADD52R,0.06706X0.06706*%
%ADD53C,0.06706*%
%ADD54C,0.05300*%
%ADD55R,0.05300X0.05300*%
%ADD56R,0.06800X0.06800*%
D37*
X71260Y320866D02*
D03*
D38*
X306693Y200787D02*
D03*
D39*
X288386Y133858D02*
D03*
X229331D02*
D03*
X178150D02*
D03*
X99410D02*
D03*
D40*
X278543D02*
D03*
X219488D02*
D03*
X168307D02*
D03*
X89567D02*
D03*
D41*
X82677Y288032D02*
D03*
Y278032D02*
D03*
Y268032D02*
D03*
Y248032D02*
D03*
Y258032D02*
D03*
D42*
Y298032D02*
D03*
D43*
X153228Y149606D02*
D03*
X193228D02*
D03*
X114488D02*
D03*
X74488D02*
D03*
X212283D02*
D03*
X252283D02*
D03*
X303465Y149606D02*
D03*
X263465D02*
D03*
D44*
X286969Y346457D02*
D03*
D45*
X276969D02*
D03*
X266969D02*
D03*
X256969D02*
D03*
X246969D02*
D03*
X236969D02*
D03*
X226969D02*
D03*
X216969D02*
D03*
D46*
X80984Y338583D02*
D03*
X90984D02*
D03*
X100984D02*
D03*
X110984D02*
D03*
X120984D02*
D03*
X130984D02*
D03*
X140984D02*
D03*
X150984D02*
D03*
X160984D02*
D03*
D47*
X170984D02*
D03*
D48*
X314961Y261811D02*
D03*
X96457Y188976D02*
D03*
D49*
X314961Y289370D02*
D03*
D50*
X291339Y314961D02*
D03*
D51*
X281339D02*
D03*
X271339D02*
D03*
X261339D02*
D03*
X251339D02*
D03*
X241339D02*
D03*
X231339D02*
D03*
X221339D02*
D03*
X211339D02*
D03*
X201339D02*
D03*
X191339D02*
D03*
X181339D02*
D03*
X171339D02*
D03*
X161339D02*
D03*
X151339D02*
D03*
X141339D02*
D03*
X131339D02*
D03*
X121339D02*
D03*
X111339D02*
D03*
X101339D02*
D03*
X291339Y224961D02*
D03*
X281339D02*
D03*
X271339D02*
D03*
X261339D02*
D03*
X251339D02*
D03*
X241339D02*
D03*
X231339D02*
D03*
X221339D02*
D03*
X211339D02*
D03*
X201339D02*
D03*
X191339D02*
D03*
X181339D02*
D03*
X171339D02*
D03*
X161339D02*
D03*
X151339D02*
D03*
X141339D02*
D03*
X131339D02*
D03*
X121339D02*
D03*
X111339D02*
D03*
X101339D02*
D03*
D52*
X162913Y173976D02*
D03*
X172913Y203976D02*
D03*
X192913D02*
D03*
D53*
X172913Y173976D02*
D03*
X182913D02*
D03*
X192913D02*
D03*
X202913D02*
D03*
X212913D02*
D03*
X222913D02*
D03*
X162913Y203976D02*
D03*
X182913D02*
D03*
X202913D02*
D03*
X212913D02*
D03*
X222913D02*
D03*
D54*
X125984Y192039D02*
D03*
D55*
Y178039D02*
D03*
D56*
X68898Y188976D02*
D03*
M02*
