G04 Layer_Color=15132400*
%FSLAX25Y25*%
%MOIN*%
G70*
G01*
G75*
%ADD32C,0.00984*%
%ADD33C,0.00787*%
%ADD34C,0.02362*%
%ADD35C,0.00500*%
%ADD36C,0.01000*%
D32*
X311024Y336614D02*
G03*
X320866Y346457I0J9843D01*
G01*
X183071D02*
G03*
X192913Y336614I9843J0D01*
G01*
X158287Y173976D02*
G03*
X158287Y173976I-492J0D01*
G01*
X183071Y346457D02*
Y354331D01*
X320866Y346457D02*
Y354331D01*
X192913Y336614D02*
X311024D01*
D33*
X296339Y272461D02*
G03*
X296339Y267461I0J-2500D01*
G01*
X154134Y186476D02*
G03*
X154134Y191476I0J2500D01*
G01*
X175984Y333661D02*
Y343504D01*
X75984D02*
X175984D01*
X75984Y333661D02*
Y343504D01*
Y333661D02*
X175984D01*
X296339Y272461D02*
Y306752D01*
Y233169D02*
Y267461D01*
X96339Y233169D02*
X296339D01*
X96339D02*
Y306752D01*
X296339D01*
X154134Y178543D02*
X231693D01*
X154134Y199409D02*
X231693D01*
X154134Y178543D02*
Y186476D01*
Y191476D02*
Y199409D01*
X231693Y178543D02*
Y199409D01*
D34*
X159252Y182480D02*
G03*
X159252Y182480I-1181J0D01*
G01*
D35*
X141984Y185039D02*
G03*
X141984Y185039I-16000J0D01*
G01*
D36*
X275591Y128740D02*
X291339D01*
X275591Y138976D02*
X291339D01*
X275591Y136614D02*
Y138976D01*
X291339Y136614D02*
Y138976D01*
Y128866D02*
Y130709D01*
X275591Y128740D02*
Y130709D01*
X216535Y128740D02*
X232283D01*
X216535Y138976D02*
X232283D01*
X216535Y136614D02*
Y138976D01*
X232283Y136614D02*
Y138976D01*
Y128866D02*
Y130709D01*
X216535Y128740D02*
Y130709D01*
X165354Y128740D02*
X181102D01*
X165354Y138976D02*
X181102D01*
X165354Y136614D02*
Y138976D01*
X181102Y136614D02*
Y138976D01*
Y128866D02*
Y130709D01*
X165354Y128740D02*
Y130709D01*
X86614Y128740D02*
X102362D01*
X86614Y138976D02*
X102362D01*
X86614Y136614D02*
Y138976D01*
X102362Y136614D02*
Y138976D01*
Y128866D02*
Y130709D01*
X86614Y128740D02*
Y130709D01*
X158228Y144881D02*
Y154106D01*
Y144881D02*
X188228D01*
Y154106D01*
X158228D02*
X188228D01*
X305118Y257874D02*
Y293307D01*
Y257874D02*
X324803D01*
X305118Y293307D02*
X324803D01*
Y257874D02*
Y293307D01*
X109488Y145106D02*
Y154332D01*
X79488D02*
X109488D01*
X79488Y145106D02*
Y154332D01*
Y145106D02*
X109488D01*
X129984Y192539D02*
X131984D01*
X130984Y191539D02*
Y193539D01*
X64961Y179134D02*
X100394D01*
Y198819D01*
X64961Y179134D02*
Y198819D01*
X100394D01*
X217283Y144881D02*
Y154106D01*
Y144881D02*
X247283D01*
Y154106D01*
X217283D02*
X247283D01*
X298465Y145106D02*
Y154332D01*
X268465D02*
X298465D01*
X268465Y145106D02*
Y154332D01*
Y145106D02*
X298465D01*
X74803Y278590D02*
X68805D01*
X71804Y275590D01*
Y279589D01*
X69805Y265841D02*
X68805Y266840D01*
Y268840D01*
X69805Y269839D01*
X70804D01*
X71804Y268840D01*
Y267840D01*
Y268840D01*
X72804Y269839D01*
X73804D01*
X74803Y268840D01*
Y266840D01*
X73804Y265841D01*
X74803Y259904D02*
Y255906D01*
X70804Y259904D01*
X69805D01*
X68805Y258905D01*
Y256905D01*
X69805Y255906D01*
X74803Y248031D02*
Y250031D01*
Y249031D01*
X68805D01*
X69805Y248031D01*
X64349Y300814D02*
X62291Y297385D01*
X62977Y294642D01*
X65720Y295328D01*
X67778Y298757D01*
X72407Y294814D02*
X72064Y296185D01*
X70349Y297214D01*
X68978Y296871D01*
X66920Y293442D01*
X67263Y292071D01*
X68978Y291042D01*
X70349Y291385D01*
X77550Y291728D02*
X77207Y293099D01*
X75493Y294128D01*
X74121Y293785D01*
X72064Y290356D01*
X72407Y288985D01*
X74121Y287956D01*
X75493Y288299D01*
X68205Y308528D02*
X67862Y309899D01*
X66148Y310928D01*
X64776Y310585D01*
X62719Y307156D01*
X63062Y305785D01*
X64776Y304756D01*
X66148Y305099D01*
X67177Y306814D01*
X65462Y307842D01*
X67348Y303213D02*
X70434Y308356D01*
X70777Y301156D01*
X73863Y306299D01*
X75577Y305271D02*
X72491Y300127D01*
X75063Y298584D01*
X76434Y298927D01*
X78492Y302356D01*
X78149Y303728D01*
X75577Y305271D01*
X297699Y134920D02*
X296700Y135919D01*
X294701D01*
X293701Y134920D01*
Y130921D01*
X294701Y129921D01*
X296700D01*
X297699Y130921D01*
X299699Y134920D02*
X300698Y135919D01*
X302698D01*
X303698Y134920D01*
Y133920D01*
X302698Y132920D01*
X303698Y131921D01*
Y130921D01*
X302698Y129921D01*
X300698D01*
X299699Y130921D01*
Y131921D01*
X300698Y132920D01*
X299699Y133920D01*
Y134920D01*
X300698Y132920D02*
X302698D01*
X240219Y134920D02*
X239219Y135919D01*
X237220D01*
X236221Y134920D01*
Y130921D01*
X237220Y129921D01*
X239219D01*
X240219Y130921D01*
X246217Y135919D02*
X244218Y134920D01*
X242218Y132920D01*
Y130921D01*
X243218Y129921D01*
X245218D01*
X246217Y130921D01*
Y131921D01*
X245218Y132920D01*
X242218D01*
X189038Y134920D02*
X188038Y135919D01*
X186039D01*
X185039Y134920D01*
Y130921D01*
X186039Y129921D01*
X188038D01*
X189038Y130921D01*
X194036Y129921D02*
Y135919D01*
X191037Y132920D01*
X195036D01*
X110298Y134920D02*
X109298Y135919D01*
X107299D01*
X106299Y134920D01*
Y130921D01*
X107299Y129921D01*
X109298D01*
X110298Y130921D01*
X116296Y129921D02*
X112297D01*
X116296Y133920D01*
Y134920D01*
X115296Y135919D01*
X113297D01*
X112297Y134920D01*
X169291Y157480D02*
Y163478D01*
X172290D01*
X173290Y162479D01*
Y160479D01*
X172290Y159480D01*
X169291D01*
X171291D02*
X173290Y157480D01*
X179288D02*
X175289D01*
X179288Y161479D01*
Y162479D01*
X178288Y163478D01*
X176289D01*
X175289Y162479D01*
X309621Y301850D02*
X308621Y302850D01*
X306622D01*
X305622Y301850D01*
Y297852D01*
X306622Y296852D01*
X308621D01*
X309621Y297852D01*
X311620Y296852D02*
X313619D01*
X312620D01*
Y302850D01*
X311620Y301850D01*
X316618Y296852D02*
X318618D01*
X317618D01*
Y302850D01*
X316618Y301850D01*
X80481Y352979D02*
X78482D01*
X79482D01*
Y347981D01*
X78482Y346981D01*
X77482D01*
X76483Y347981D01*
X82481Y346981D02*
X84480D01*
X83480D01*
Y352979D01*
X82481Y351979D01*
X96958Y329323D02*
Y324325D01*
X97958Y323325D01*
X99957D01*
X100957Y324325D01*
Y329323D01*
X102956Y323325D02*
X104956D01*
X103956D01*
Y329323D01*
X102956Y328324D01*
X185039Y332770D02*
Y327771D01*
X186039Y326772D01*
X188038D01*
X189038Y327771D01*
Y332770D01*
X195036Y326772D02*
X191037D01*
X195036Y330770D01*
Y331770D01*
X194036Y332770D01*
X192037D01*
X191037Y331770D01*
X73914Y131998D02*
X72915Y132998D01*
X70915D01*
X69916Y131998D01*
Y128000D01*
X70915Y127000D01*
X72915D01*
X73914Y128000D01*
X75914Y127000D02*
X77913D01*
X76913D01*
Y132998D01*
X75914Y131998D01*
X136891D02*
X135891Y132998D01*
X133892D01*
X132892Y131998D01*
Y128000D01*
X133892Y127000D01*
X135891D01*
X136891Y128000D01*
X138890Y131998D02*
X139890Y132998D01*
X141889D01*
X142889Y131998D01*
Y130999D01*
X141889Y129999D01*
X140890D01*
X141889D01*
X142889Y128999D01*
Y128000D01*
X141889Y127000D01*
X139890D01*
X138890Y128000D01*
X203828Y131998D02*
X202828Y132998D01*
X200829D01*
X199829Y131998D01*
Y128000D01*
X200829Y127000D01*
X202828D01*
X203828Y128000D01*
X209826Y132998D02*
X205827D01*
Y129999D01*
X207826Y130999D01*
X208826D01*
X209826Y129999D01*
Y128000D01*
X208826Y127000D01*
X206827D01*
X205827Y128000D01*
X266762Y131998D02*
X265762Y132998D01*
X263763D01*
X262763Y131998D01*
Y128000D01*
X263763Y127000D01*
X265762D01*
X266762Y128000D01*
X268761Y132998D02*
X272760D01*
Y131998D01*
X268761Y128000D01*
Y127000D01*
X69496Y207335D02*
X68497Y208335D01*
X66497D01*
X65498Y207335D01*
Y203337D01*
X66497Y202337D01*
X68497D01*
X69496Y203337D01*
X71496Y202337D02*
X73495D01*
X72495D01*
Y208335D01*
X71496Y207335D01*
X80493Y202337D02*
X76494D01*
X80493Y206336D01*
Y207335D01*
X79493Y208335D01*
X77494D01*
X76494Y207335D01*
X114199Y209835D02*
X113199Y210835D01*
X111200D01*
X110200Y209835D01*
Y205837D01*
X111200Y204837D01*
X113199D01*
X114199Y205837D01*
X116198Y204837D02*
X118197D01*
X117198D01*
Y210835D01*
X116198Y209835D01*
X121196D02*
X122196Y210835D01*
X124196D01*
X125195Y209835D01*
Y208836D01*
X124196Y207836D01*
X123196D01*
X124196D01*
X125195Y206836D01*
Y205837D01*
X124196Y204837D01*
X122196D01*
X121196Y205837D01*
X71704Y157863D02*
Y163861D01*
X74703D01*
X75703Y162861D01*
Y160862D01*
X74703Y159862D01*
X71704D01*
X73703D02*
X75703Y157863D01*
X77702D02*
X79701D01*
X78702D01*
Y163861D01*
X77702Y162861D01*
X224410Y157480D02*
Y163478D01*
X227409D01*
X228408Y162479D01*
Y160479D01*
X227409Y159480D01*
X224410D01*
X226409D02*
X228408Y157480D01*
X230408Y162479D02*
X231407Y163478D01*
X233407D01*
X234406Y162479D01*
Y161479D01*
X233407Y160479D01*
X232407D01*
X233407D01*
X234406Y159480D01*
Y158480D01*
X233407Y157480D01*
X231407D01*
X230408Y158480D01*
X275590Y157480D02*
Y163478D01*
X278590D01*
X279589Y162479D01*
Y160479D01*
X278590Y159480D01*
X275590D01*
X277590D02*
X279589Y157480D01*
X284588D02*
Y163478D01*
X281589Y160479D01*
X285587D01*
X154077Y217135D02*
Y212137D01*
X155077Y211137D01*
X157076D01*
X158076Y212137D01*
Y217135D01*
X160075Y216135D02*
X161075Y217135D01*
X163074D01*
X164074Y216135D01*
Y215136D01*
X163074Y214136D01*
X162075D01*
X163074D01*
X164074Y213136D01*
Y212137D01*
X163074Y211137D01*
X161075D01*
X160075Y212137D01*
X70928Y368203D02*
X66929D01*
Y362205D01*
X70928D01*
X66929Y365204D02*
X68928D01*
X72927Y368203D02*
X74927D01*
X73927D01*
Y362205D01*
X72927D01*
X74927D01*
X81924Y368203D02*
X77926D01*
Y362205D01*
X81924D01*
X77926Y365204D02*
X79925D01*
X89922Y368203D02*
X91921D01*
X90921D01*
Y362205D01*
X89922D01*
X91921D01*
X94920Y368203D02*
Y367203D01*
X96919Y365204D01*
X98919Y367203D01*
Y368203D01*
X96919Y365204D02*
Y362205D01*
X106916Y365204D02*
X110915D01*
X118912Y367203D02*
X119912Y368203D01*
X121911D01*
X122911Y367203D01*
Y363204D01*
X121911Y362205D01*
X119912D01*
X118912Y363204D01*
Y367203D01*
X124910Y363204D02*
X125910Y362205D01*
X127909D01*
X128909Y363204D01*
Y367203D01*
X127909Y368203D01*
X125910D01*
X124910Y367203D01*
Y366203D01*
X125910Y365204D01*
X128909D01*
M02*
